<svg width="1116" height="321" viewBox="0 0 1116 321" fill="none" xmlns="http://www.w3.org/2000/svg">
<g filter="url(#filter0_dd_630_2)">
<mask id="path-1-outside-1_630_2" maskUnits="userSpaceOnUse" x="26" y="26" width="819" height="112" fill="black">
<rect fill="white" x="26" y="26" width="819" height="112"/>
<path d="M30.2266 37.7422C30.2266 35.7188 30.9492 33.9844 32.3945 32.5391C33.8398 31.0938 35.5742 30.3711 37.5977 30.3711H94.6875C96.7109 30.3711 98.4453 31.0938 99.8906 32.5391C101.336 33.9844 102.059 35.7188 102.059 37.7422C102.059 39.7656 101.336 41.5 99.8906 42.9453C98.4453 44.3906 96.7109 45.1133 94.6875 45.1133H44.9688V61.4453H66.5039C68.5273 61.4453 70.2617 62.168 71.707 63.6133C73.1523 65.0586 73.875 66.793 73.875 68.8164C73.875 70.8398 73.1523 72.5742 71.707 74.0195C70.2617 75.4648 68.5273 76.1875 66.5039 76.1875H44.9688V126.629C44.9688 128.652 44.2461 130.387 42.8008 131.832C41.3555 133.277 39.6211 134 37.5977 134C35.5742 134 33.8398 133.277 32.3945 131.832C30.9492 130.387 30.2266 128.652 30.2266 126.629V37.7422ZM153.656 44.8242H131.398V76.1152H153.656C157.992 76.1152 161.678 74.5977 164.713 71.5625C167.796 68.4792 169.338 64.7695 169.338 60.4336C169.338 56.1458 167.796 52.4844 164.713 49.4492C161.678 46.3659 157.992 44.8242 153.656 44.8242ZM159.148 90.207C157.366 90.4961 155.535 90.6406 153.656 90.6406H131.398V126.629C131.398 128.652 130.676 130.387 129.23 131.832C127.785 133.277 126.051 134 124.027 134C122.004 134 120.27 133.277 118.824 131.832C117.379 130.387 116.656 128.652 116.656 126.629V37.7422C116.656 35.7188 117.379 33.9844 118.824 32.5391C120.27 31.0938 122.004 30.3711 124.027 30.3711L153.656 30.2988C161.991 30.2988 169.097 33.2376 174.975 39.1152C180.9 44.9928 183.863 52.099 183.863 60.4336C183.863 68.7682 180.924 75.8743 175.047 81.752C174.228 82.571 173.433 83.2936 172.662 83.9199L195.137 122.943C195.811 124.1 196.148 125.28 196.148 126.484C196.148 127.159 196.052 127.833 195.859 128.508C195.329 130.483 194.173 131.977 192.391 132.988C191.234 133.663 190.054 134 188.85 134C188.175 134 187.501 133.904 186.826 133.711C184.851 133.181 183.357 132.049 182.346 130.314L159.148 90.207ZM250.42 30.3711C264.729 30.3711 276.941 35.4297 287.059 45.5469C297.176 55.6641 302.234 67.877 302.234 82.1855C302.234 96.4941 297.176 108.707 287.059 118.824C276.941 128.941 264.729 134 250.42 134C236.111 134 223.898 128.941 213.781 118.824C203.664 108.707 198.605 96.4941 198.605 82.1855C198.605 67.877 203.664 55.6641 213.781 45.5469C223.898 35.4297 236.111 30.3711 250.42 30.3711ZM250.42 45.1133C240.158 45.1133 231.414 48.7507 224.188 56.0254C216.961 63.252 213.348 71.972 213.348 82.1855C213.348 92.3991 216.961 101.143 224.188 108.418C231.414 115.645 240.158 119.258 250.42 119.258C260.633 119.258 269.354 115.645 276.58 108.418C283.855 101.143 287.492 92.3991 287.492 82.1855C287.492 71.972 283.855 63.252 276.58 56.0254C269.354 48.7507 260.633 45.1133 250.42 45.1133ZM332.586 58.4102V126.629C332.586 128.652 331.863 130.387 330.418 131.832C328.973 133.277 327.238 134 325.215 134C323.191 134 321.457 133.277 320.012 131.832C318.566 130.387 317.844 128.652 317.844 126.629V37.7422C317.844 35.7188 318.566 33.9844 320.012 32.5391C321.457 31.0938 323.191 30.3711 325.215 30.3711C327.238 30.3711 328.973 31.0938 330.418 32.5391C330.996 33.1172 331.454 33.7435 331.791 34.418L390.109 106.395V37.7422C390.109 35.7188 390.832 33.9844 392.277 32.5391C393.723 31.0938 395.457 30.3711 397.48 30.3711C399.504 30.3711 401.238 31.0938 402.684 32.5391C404.129 33.9844 404.852 35.7188 404.852 37.7422V126.629C404.852 128.652 404.129 130.387 402.684 131.832C401.238 133.277 399.504 134 397.48 134C395.457 134 393.723 133.277 392.277 131.832C392.085 131.639 391.892 131.471 391.699 131.326L332.586 58.4102ZM462.664 44.8242V126.629C462.664 128.652 461.941 130.387 460.496 131.832C459.051 133.277 457.316 134 455.293 134C453.27 134 451.535 133.277 450.09 131.832C448.645 130.387 447.922 128.652 447.922 126.629V44.8242H426.387C424.363 44.8242 422.629 44.1016 421.184 42.6562C419.738 41.2109 419.016 39.4766 419.016 37.4531C419.016 35.4297 419.738 33.6953 421.184 32.25C422.629 30.8047 424.363 30.082 426.387 30.082H483.91C485.934 30.082 487.668 30.8047 489.113 32.25C490.559 33.6953 491.281 35.4297 491.281 37.4531C491.281 39.4766 490.559 41.2109 489.113 42.6562C487.668 44.1016 485.934 44.8242 483.91 44.8242H462.664ZM505.879 83.7031C505.879 81.6797 506.602 79.9453 508.047 78.5C509.492 77.0547 511.227 76.332 513.25 76.332H542.156C544.18 76.332 545.914 77.0547 547.359 78.5C548.805 79.9453 549.527 81.6797 549.527 83.7031C549.527 85.7266 548.805 87.4609 547.359 88.9062C545.914 90.3516 544.18 91.0742 542.156 91.0742H513.25C511.227 91.0742 509.492 90.3516 508.047 88.9062C506.602 87.4609 505.879 85.7266 505.879 83.7031ZM563.836 37.7422C563.836 35.7188 564.559 33.9844 566.004 32.5391C567.449 31.0938 569.184 30.3711 571.207 30.3711H628.297C630.32 30.3711 632.055 31.0938 633.5 32.5391C634.945 33.9844 635.668 35.7188 635.668 37.7422C635.668 39.7656 634.945 41.5 633.5 42.9453C632.055 44.3906 630.32 45.1133 628.297 45.1133H578.578V61.4453H600.113C602.137 61.4453 603.871 62.168 605.316 63.6133C606.762 65.0586 607.484 66.793 607.484 68.8164C607.484 70.8398 606.762 72.5742 605.316 74.0195C603.871 75.4648 602.137 76.1875 600.113 76.1875H578.578V119.258H628.297C630.32 119.258 632.055 119.98 633.5 121.426C634.945 122.871 635.668 124.605 635.668 126.629C635.668 128.652 634.945 130.387 633.5 131.832C632.055 133.277 630.32 134 628.297 134H571.207C569.184 134 567.449 133.277 566.004 131.832C564.559 130.387 563.836 128.652 563.836 126.629V37.7422ZM665.875 58.4102V126.629C665.875 128.652 665.152 130.387 663.707 131.832C662.262 133.277 660.527 134 658.504 134C656.48 134 654.746 133.277 653.301 131.832C651.855 130.387 651.133 128.652 651.133 126.629V37.7422C651.133 35.7188 651.855 33.9844 653.301 32.5391C654.746 31.0938 656.48 30.3711 658.504 30.3711C660.527 30.3711 662.262 31.0938 663.707 32.5391C664.285 33.1172 664.743 33.7435 665.08 34.418L723.398 106.395V37.7422C723.398 35.7188 724.121 33.9844 725.566 32.5391C727.012 31.0938 728.746 30.3711 730.77 30.3711C732.793 30.3711 734.527 31.0938 735.973 32.5391C737.418 33.9844 738.141 35.7188 738.141 37.7422V126.629C738.141 128.652 737.418 130.387 735.973 131.832C734.527 133.277 732.793 134 730.77 134C728.746 134 727.012 133.277 725.566 131.832C725.374 131.639 725.181 131.471 724.988 131.326L665.875 58.4102ZM788.221 45.1133H767.047V119.258H788.221C798.434 119.258 807.154 115.645 814.381 108.418C821.656 101.143 825.293 92.3991 825.293 82.1855C825.293 71.972 821.656 63.252 814.381 56.0254C807.154 48.7507 798.434 45.1133 788.221 45.1133ZM759.676 134C757.652 134 755.918 133.277 754.473 131.832C753.027 130.387 752.305 128.652 752.305 126.629V37.7422C752.305 35.7188 753.027 33.9844 754.473 32.5391C755.918 31.0938 757.652 30.3711 759.676 30.3711H788.221C802.529 30.3711 814.742 35.4297 824.859 45.5469C834.977 55.6641 840.035 67.877 840.035 82.1855C840.035 96.4941 834.977 108.707 824.859 118.824C814.742 128.941 802.529 134 788.221 134H759.676Z"/>
</mask>
<path d="M44.9688 45.1133V41.1133H40.9688V45.1133H44.9688ZM44.9688 61.4453H40.9688V65.4453H44.9688V61.4453ZM44.9688 76.1875V72.1875H40.9688V76.1875H44.9688ZM34.2266 37.7422C34.2266 36.7917 34.5192 36.0712 35.223 35.3675L29.5661 29.7106C27.3792 31.8975 26.2266 34.6458 26.2266 37.7422H34.2266ZM35.223 35.3675C35.9267 34.6638 36.6471 34.3711 37.5977 34.3711V26.3711C34.5013 26.3711 31.753 27.5237 29.5661 29.7106L35.223 35.3675ZM37.5977 34.3711H94.6875V26.3711H37.5977V34.3711ZM94.6875 34.3711C95.638 34.3711 96.3585 34.6638 97.0622 35.3675L102.719 29.7106C100.532 27.5237 97.7838 26.3711 94.6875 26.3711V34.3711ZM97.0622 35.3675C97.7659 36.0712 98.0586 36.7917 98.0586 37.7422H106.059C106.059 34.6458 104.906 31.8975 102.719 29.7106L97.0622 35.3675ZM98.0586 37.7422C98.0586 38.6927 97.7659 39.4132 97.0622 40.1169L102.719 45.7737C104.906 43.5868 106.059 40.8385 106.059 37.7422H98.0586ZM97.0622 40.1169C96.3585 40.8206 95.638 41.1133 94.6875 41.1133V49.1133C97.7838 49.1133 100.532 47.9606 102.719 45.7737L97.0622 40.1169ZM94.6875 41.1133H44.9688V49.1133H94.6875V41.1133ZM40.9688 45.1133V61.4453H48.9688V45.1133H40.9688ZM44.9688 65.4453H66.5039V57.4453H44.9688V65.4453ZM66.5039 65.4453C67.4544 65.4453 68.1749 65.738 68.8786 66.4417L74.5355 60.7849C72.3486 58.598 69.6003 57.4453 66.5039 57.4453V65.4453ZM68.8786 66.4417C69.5823 67.1454 69.875 67.8659 69.875 68.8164H77.875C77.875 65.7201 76.7224 62.9718 74.5355 60.7849L68.8786 66.4417ZM69.875 68.8164C69.875 69.7669 69.5823 70.4874 68.8786 71.1911L74.5355 76.848C76.7224 74.6611 77.875 71.9128 77.875 68.8164H69.875ZM68.8786 71.1911C68.1749 71.8948 67.4544 72.1875 66.5039 72.1875V80.1875C69.6003 80.1875 72.3486 79.0349 74.5355 76.848L68.8786 71.1911ZM66.5039 72.1875H44.9688V80.1875H66.5039V72.1875ZM40.9688 76.1875V126.629H48.9688V76.1875H40.9688ZM40.9688 126.629C40.9688 127.579 40.6761 128.3 39.9724 129.004L45.6292 134.66C47.8161 132.474 48.9688 129.725 48.9688 126.629H40.9688ZM39.9724 129.004C39.2686 129.707 38.5482 130 37.5977 130V138C40.694 138 43.4423 136.847 45.6292 134.66L39.9724 129.004ZM37.5977 130C36.6471 130 35.9267 129.707 35.223 129.004L29.5661 134.66C31.753 136.847 34.5013 138 37.5977 138V130ZM35.223 129.004C34.5192 128.3 34.2266 127.579 34.2266 126.629H26.2266C26.2266 129.725 27.3792 132.474 29.5661 134.66L35.223 129.004ZM34.2266 126.629V37.7422H26.2266V126.629H34.2266ZM131.398 44.8242V40.8242H127.398V44.8242H131.398ZM131.398 76.1152H127.398V80.1152H131.398V76.1152ZM164.713 49.4492L161.862 52.2553L161.884 52.2777L161.907 52.2998L164.713 49.4492ZM159.148 90.207L162.611 88.2044L161.23 85.8172L158.508 86.2586L159.148 90.207ZM131.398 90.6406V86.6406H127.398V90.6406H131.398ZM124.027 30.3711L124.027 34.3711L124.037 34.3711L124.027 30.3711ZM153.656 30.2988L153.656 26.2988L153.646 26.2988L153.656 30.2988ZM174.975 39.1152L172.146 41.9437L172.152 41.9494L172.158 41.9552L174.975 39.1152ZM172.662 83.9199L170.14 80.8155L167.496 82.9639L169.196 85.9162L172.662 83.9199ZM195.137 122.943L191.67 124.94L191.676 124.949L191.682 124.959L195.137 122.943ZM195.859 128.508L192.013 127.409L192.004 127.44L191.996 127.471L195.859 128.508ZM192.391 132.988L190.416 129.51L190.396 129.521L190.375 129.533L192.391 132.988ZM186.826 133.711L187.925 129.865L187.894 129.856L187.863 129.848L186.826 133.711ZM182.346 130.314L178.883 132.317L178.887 132.324L178.891 132.33L182.346 130.314ZM153.656 40.8242H131.398V48.8242H153.656V40.8242ZM127.398 44.8242V76.1152H135.398V44.8242H127.398ZM131.398 80.1152H153.656V72.1152H131.398V80.1152ZM153.656 80.1152C159.041 80.1152 163.747 78.1847 167.541 74.3909L161.884 68.7341C159.608 71.0106 156.943 72.1152 153.656 72.1152V80.1152ZM167.541 74.3909C171.37 70.5622 173.338 65.8371 173.338 60.4336H165.338C165.338 63.7019 164.222 66.3961 161.884 68.7341L167.541 74.3909ZM173.338 60.4336C173.338 55.0632 171.358 50.378 167.519 46.5986L161.907 52.2998C164.234 54.5908 165.338 57.2285 165.338 60.4336H173.338ZM167.564 46.6431C163.775 42.7941 159.061 40.8242 153.656 40.8242V48.8242C156.923 48.8242 159.581 49.9376 161.862 52.2553L167.564 46.6431ZM158.508 86.2586C156.946 86.512 155.329 86.6406 153.656 86.6406V94.6406C155.741 94.6406 157.786 94.4802 159.789 94.1555L158.508 86.2586ZM153.656 86.6406H131.398V94.6406H153.656V86.6406ZM127.398 90.6406V126.629H135.398V90.6406H127.398ZM127.398 126.629C127.398 127.579 127.106 128.3 126.402 129.004L132.059 134.66C134.246 132.474 135.398 129.725 135.398 126.629H127.398ZM126.402 129.004C125.698 129.707 124.978 130 124.027 130V138C127.124 138 129.872 136.847 132.059 134.66L126.402 129.004ZM124.027 130C123.077 130 122.356 129.707 121.653 129.004L115.996 134.66C118.183 136.847 120.931 138 124.027 138V130ZM121.653 129.004C120.949 128.3 120.656 127.579 120.656 126.629H112.656C112.656 129.725 113.809 132.474 115.996 134.66L121.653 129.004ZM120.656 126.629V37.7422H112.656V126.629H120.656ZM120.656 37.7422C120.656 36.7917 120.949 36.0712 121.653 35.3675L115.996 29.7106C113.809 31.8975 112.656 34.6458 112.656 37.7422H120.656ZM121.653 35.3675C122.356 34.6638 123.077 34.3711 124.027 34.3711V26.3711C120.931 26.3711 118.183 27.5237 115.996 29.7106L121.653 35.3675ZM124.037 34.3711L153.666 34.2988L153.646 26.2988L124.018 26.3711L124.037 34.3711ZM153.656 34.2988C160.933 34.2988 167.021 36.8185 172.146 41.9437L177.803 36.2868C171.173 29.6568 163.049 26.2988 153.656 26.2988V34.2988ZM172.158 41.9552C177.328 47.0829 179.863 53.1672 179.863 60.4336H187.863C187.863 51.0307 184.473 42.9028 177.791 36.2753L172.158 41.9552ZM179.863 60.4336C179.863 67.7106 177.344 73.7983 172.218 78.9235L177.875 84.5804C184.505 77.9504 187.863 69.8259 187.863 60.4336H179.863ZM172.218 78.9235C171.481 79.6608 170.788 80.2887 170.14 80.8155L175.184 87.0244C176.078 86.2986 176.975 85.4811 177.875 84.5804L172.218 78.9235ZM169.196 85.9162L191.67 124.94L198.603 120.947L176.128 81.9236L169.196 85.9162ZM191.682 124.959C192.04 125.573 192.148 126.065 192.148 126.484H200.148C200.148 124.495 199.582 122.626 198.592 120.928L191.682 124.959ZM192.148 126.484C192.148 126.773 192.108 127.077 192.013 127.409L199.705 129.607C199.996 128.589 200.148 127.545 200.148 126.484H192.148ZM191.996 127.471C191.744 128.41 191.27 129.025 190.416 129.51L194.365 136.467C197.076 134.928 198.915 132.556 199.723 129.544L191.996 127.471ZM190.375 129.533C189.761 129.892 189.269 130 188.85 130V138C190.839 138 192.708 137.434 194.406 136.443L190.375 129.533ZM188.85 130C188.561 130 188.257 129.96 187.925 129.865L185.727 137.557C186.745 137.848 187.789 138 188.85 138V130ZM187.863 129.848C186.884 129.585 186.27 129.104 185.801 128.299L178.891 132.33C180.444 134.994 182.817 136.777 185.79 137.574L187.863 129.848ZM185.808 128.312L162.611 88.2044L155.686 92.2097L178.883 132.317L185.808 128.312ZM224.188 56.0254L227.016 58.8538L227.025 58.8444L224.188 56.0254ZM224.188 108.418L221.35 111.237L221.359 111.246L224.188 108.418ZM276.58 108.418L273.752 105.59L276.58 108.418ZM276.58 56.0254L273.742 58.8444L273.752 58.8538L273.761 58.8632L276.58 56.0254ZM250.42 34.3711C263.668 34.3711 274.863 39.0083 284.23 48.3753L289.887 42.7184C279.02 31.8511 265.789 26.3711 250.42 26.3711V34.3711ZM284.23 48.3753C293.597 57.7423 298.234 68.9378 298.234 82.1855H306.234C306.234 66.8161 300.754 53.5858 289.887 42.7184L284.23 48.3753ZM298.234 82.1855C298.234 95.4333 293.597 106.629 284.23 115.996L289.887 121.653C300.754 110.785 306.234 97.5549 306.234 82.1855H298.234ZM284.23 115.996C274.863 125.363 263.668 130 250.42 130V138C265.789 138 279.02 132.52 289.887 121.653L284.23 115.996ZM250.42 130C237.172 130 225.977 125.363 216.61 115.996L210.953 121.653C221.82 132.52 235.051 138 250.42 138V130ZM216.61 115.996C207.243 106.629 202.605 95.4333 202.605 82.1855H194.605C194.605 97.5549 200.085 110.785 210.953 121.653L216.61 115.996ZM202.605 82.1855C202.605 68.9378 207.243 57.7423 216.61 48.3753L210.953 42.7184C200.085 53.5858 194.605 66.8161 194.605 82.1855H202.605ZM216.61 48.3753C225.977 39.0083 237.172 34.3711 250.42 34.3711V26.3711C235.051 26.3711 221.82 31.8511 210.953 42.7184L216.61 48.3753ZM250.42 41.1133C239.094 41.1133 229.328 45.1751 221.35 53.2064L227.025 58.8444C233.5 52.3262 241.223 49.1133 250.42 49.1133V41.1133ZM221.359 53.197C213.383 61.1731 209.348 70.9104 209.348 82.1855H217.348C217.348 73.0336 220.539 65.3308 227.016 58.8538L221.359 53.197ZM209.348 82.1855C209.348 93.46 213.382 103.216 221.35 111.237L227.025 105.599C220.54 99.0702 217.348 91.3381 217.348 82.1855H209.348ZM221.359 111.246C229.339 119.227 239.102 123.258 250.42 123.258V115.258C241.214 115.258 233.489 112.063 227.016 105.59L221.359 111.246ZM250.42 123.258C261.695 123.258 271.432 119.223 279.409 111.246L273.752 105.59C267.275 112.066 259.572 115.258 250.42 115.258V123.258ZM279.409 111.246C287.427 103.228 291.492 93.4686 291.492 82.1855H283.492C283.492 91.3295 280.282 99.0588 273.752 105.59L279.409 111.246ZM291.492 82.1855C291.492 70.9018 287.426 61.1617 279.399 53.1876L273.761 58.8632C280.283 65.3422 283.492 73.0422 283.492 82.1855H291.492ZM279.418 53.2064C271.444 45.1791 261.704 41.1133 250.42 41.1133V49.1133C259.563 49.1133 267.263 52.3222 273.742 58.8444L279.418 53.2064ZM332.586 58.4102L335.693 55.8911L328.586 47.1245V58.4102H332.586ZM331.791 34.418L328.213 36.2068L328.408 36.5971L328.683 36.9361L331.791 34.418ZM390.109 106.395L387.001 108.913L394.109 117.685V106.395H390.109ZM392.277 131.832L395.106 129.004L392.277 131.832ZM391.699 131.326L388.592 133.845L388.904 134.229L389.299 134.526L391.699 131.326ZM328.586 58.4102V126.629H336.586V58.4102H328.586ZM328.586 126.629C328.586 127.579 328.293 128.3 327.59 129.004L333.246 134.66C335.433 132.474 336.586 129.725 336.586 126.629H328.586ZM327.59 129.004C326.886 129.707 326.165 130 325.215 130V138C328.311 138 331.059 136.847 333.246 134.66L327.59 129.004ZM325.215 130C324.264 130 323.544 129.707 322.84 129.004L317.183 134.66C319.37 136.847 322.118 138 325.215 138V130ZM322.84 129.004C322.136 128.3 321.844 127.579 321.844 126.629H313.844C313.844 129.725 314.996 132.474 317.183 134.66L322.84 129.004ZM321.844 126.629V37.7422H313.844V126.629H321.844ZM321.844 37.7422C321.844 36.7917 322.136 36.0712 322.84 35.3675L317.183 29.7106C314.996 31.8975 313.844 34.6458 313.844 37.7422H321.844ZM322.84 35.3675C323.544 34.6638 324.264 34.3711 325.215 34.3711V26.3711C322.118 26.3711 319.37 27.5237 317.183 29.7106L322.84 35.3675ZM325.215 34.3711C326.165 34.3711 326.886 34.6638 327.59 35.3675L333.246 29.7106C331.059 27.5237 328.311 26.3711 325.215 26.3711V34.3711ZM327.59 35.3675C327.889 35.6672 328.084 35.9479 328.213 36.2068L335.369 32.6291C334.824 31.5391 334.103 30.5672 333.246 29.7106L327.59 35.3675ZM328.683 36.9361L387.001 108.913L393.217 103.876L334.899 31.8998L328.683 36.9361ZM394.109 106.395V37.7422H386.109V106.395H394.109ZM394.109 37.7422C394.109 36.7917 394.402 36.0712 395.106 35.3675L389.449 29.7106C387.262 31.8975 386.109 34.6458 386.109 37.7422H394.109ZM395.106 35.3675C395.809 34.6638 396.53 34.3711 397.48 34.3711V26.3711C394.384 26.3711 391.636 27.5237 389.449 29.7106L395.106 35.3675ZM397.48 34.3711C398.431 34.3711 399.151 34.6638 399.855 35.3675L405.512 29.7106C403.325 27.5237 400.577 26.3711 397.48 26.3711V34.3711ZM399.855 35.3675C400.559 36.0712 400.852 36.7917 400.852 37.7422H408.852C408.852 34.6458 407.699 31.8975 405.512 29.7106L399.855 35.3675ZM400.852 37.7422V126.629H408.852V37.7422H400.852ZM400.852 126.629C400.852 127.579 400.559 128.3 399.855 129.004L405.512 134.66C407.699 132.474 408.852 129.725 408.852 126.629H400.852ZM399.855 129.004C399.151 129.707 398.431 130 397.48 130V138C400.577 138 403.325 136.847 405.512 134.66L399.855 129.004ZM397.48 130C396.53 130 395.809 129.707 395.106 129.004L389.449 134.66C391.636 136.847 394.384 138 397.48 138V130ZM395.106 129.004C394.796 128.694 394.462 128.398 394.099 128.126L389.299 134.526C389.322 134.544 389.373 134.585 389.449 134.66L395.106 129.004ZM394.806 128.807L335.693 55.8911L329.479 60.9292L388.592 133.845L394.806 128.807ZM462.664 44.8242V40.8242H458.664V44.8242H462.664ZM447.922 44.8242H451.922V40.8242H447.922V44.8242ZM458.664 44.8242V126.629H466.664V44.8242H458.664ZM458.664 126.629C458.664 127.579 458.371 128.3 457.668 129.004L463.325 134.66C465.511 132.474 466.664 129.725 466.664 126.629H458.664ZM457.668 129.004C456.964 129.707 456.243 130 455.293 130V138C458.389 138 461.138 136.847 463.325 134.66L457.668 129.004ZM455.293 130C454.342 130 453.622 129.707 452.918 129.004L447.261 134.66C449.448 136.847 452.197 138 455.293 138V130ZM452.918 129.004C452.215 128.3 451.922 127.579 451.922 126.629H443.922C443.922 129.725 445.075 132.474 447.261 134.66L452.918 129.004ZM451.922 126.629V44.8242H443.922V126.629H451.922ZM447.922 40.8242H426.387V48.8242H447.922V40.8242ZM426.387 40.8242C425.436 40.8242 424.716 40.5316 424.012 39.8278L418.355 45.4847C420.542 47.6716 423.29 48.8242 426.387 48.8242V40.8242ZM424.012 39.8278C423.308 39.1241 423.016 38.4037 423.016 37.4531H415.016C415.016 40.5495 416.168 43.2978 418.355 45.4847L424.012 39.8278ZM423.016 37.4531C423.016 36.5026 423.308 35.7822 424.012 35.0784L418.355 29.4216C416.168 31.6085 415.016 34.3568 415.016 37.4531H423.016ZM424.012 35.0784C424.716 34.3747 425.436 34.082 426.387 34.082V26.082C423.29 26.082 420.542 27.2347 418.355 29.4216L424.012 35.0784ZM426.387 34.082H483.91V26.082H426.387V34.082ZM483.91 34.082C484.861 34.082 485.581 34.3747 486.285 35.0784L491.942 29.4216C489.755 27.2347 487.007 26.082 483.91 26.082V34.082ZM486.285 35.0784C486.989 35.7822 487.281 36.5026 487.281 37.4531H495.281C495.281 34.3568 494.129 31.6085 491.942 29.4216L486.285 35.0784ZM487.281 37.4531C487.281 38.4037 486.989 39.1241 486.285 39.8278L491.942 45.4847C494.129 43.2978 495.281 40.5495 495.281 37.4531H487.281ZM486.285 39.8278C485.581 40.5316 484.861 40.8242 483.91 40.8242V48.8242C487.007 48.8242 489.755 47.6716 491.942 45.4847L486.285 39.8278ZM483.91 40.8242H462.664V48.8242H483.91V40.8242ZM509.879 83.7031C509.879 82.7526 510.172 82.0322 510.875 81.3284L505.218 75.6716C503.032 77.8585 501.879 80.6068 501.879 83.7031H509.879ZM510.875 81.3284C511.579 80.6247 512.299 80.332 513.25 80.332V72.332C510.154 72.332 507.405 73.4847 505.218 75.6716L510.875 81.3284ZM513.25 80.332H542.156V72.332H513.25V80.332ZM542.156 80.332C543.107 80.332 543.827 80.6247 544.531 81.3284L550.188 75.6716C548.001 73.4847 545.253 72.332 542.156 72.332V80.332ZM544.531 81.3284C545.235 82.0322 545.527 82.7526 545.527 83.7031H553.527C553.527 80.6068 552.375 77.8585 550.188 75.6716L544.531 81.3284ZM545.527 83.7031C545.527 84.6537 545.235 85.3741 544.531 86.0778L550.188 91.7347C552.375 89.5478 553.527 86.7995 553.527 83.7031H545.527ZM544.531 86.0778C543.827 86.7816 543.107 87.0742 542.156 87.0742V95.0742C545.253 95.0742 548.001 93.9216 550.188 91.7347L544.531 86.0778ZM542.156 87.0742H513.25V95.0742H542.156V87.0742ZM513.25 87.0742C512.299 87.0742 511.579 86.7816 510.875 86.0778L505.218 91.7347C507.405 93.9216 510.154 95.0742 513.25 95.0742V87.0742ZM510.875 86.0778C510.172 85.3741 509.879 84.6537 509.879 83.7031H501.879C501.879 86.7995 503.032 89.5478 505.218 91.7347L510.875 86.0778ZM578.578 45.1133V41.1133H574.578V45.1133H578.578ZM578.578 61.4453H574.578V65.4453H578.578V61.4453ZM578.578 76.1875V72.1875H574.578V76.1875H578.578ZM578.578 119.258H574.578V123.258H578.578V119.258ZM567.836 37.7422C567.836 36.7917 568.129 36.0712 568.832 35.3675L563.175 29.7106C560.989 31.8975 559.836 34.6458 559.836 37.7422H567.836ZM568.832 35.3675C569.536 34.6638 570.257 34.3711 571.207 34.3711V26.3711C568.111 26.3711 565.362 27.5237 563.175 29.7106L568.832 35.3675ZM571.207 34.3711H628.297V26.3711H571.207V34.3711ZM628.297 34.3711C629.247 34.3711 629.968 34.6638 630.672 35.3675L636.328 29.7106C634.142 27.5237 631.393 26.3711 628.297 26.3711V34.3711ZM630.672 35.3675C631.375 36.0712 631.668 36.7917 631.668 37.7422H639.668C639.668 34.6458 638.515 31.8975 636.328 29.7106L630.672 35.3675ZM631.668 37.7422C631.668 38.6927 631.375 39.4132 630.672 40.1169L636.328 45.7737C638.515 43.5868 639.668 40.8385 639.668 37.7422H631.668ZM630.672 40.1169C629.968 40.8206 629.247 41.1133 628.297 41.1133V49.1133C631.393 49.1133 634.142 47.9606 636.328 45.7737L630.672 40.1169ZM628.297 41.1133H578.578V49.1133H628.297V41.1133ZM574.578 45.1133V61.4453H582.578V45.1133H574.578ZM578.578 65.4453H600.113V57.4453H578.578V65.4453ZM600.113 65.4453C601.064 65.4453 601.784 65.738 602.488 66.4417L608.145 60.7849C605.958 58.598 603.21 57.4453 600.113 57.4453V65.4453ZM602.488 66.4417C603.192 67.1454 603.484 67.8659 603.484 68.8164H611.484C611.484 65.7201 610.332 62.9718 608.145 60.7849L602.488 66.4417ZM603.484 68.8164C603.484 69.7669 603.192 70.4874 602.488 71.1911L608.145 76.848C610.332 74.6611 611.484 71.9128 611.484 68.8164H603.484ZM602.488 71.1911C601.784 71.8948 601.064 72.1875 600.113 72.1875V80.1875C603.21 80.1875 605.958 79.0349 608.145 76.848L602.488 71.1911ZM600.113 72.1875H578.578V80.1875H600.113V72.1875ZM574.578 76.1875V119.258H582.578V76.1875H574.578ZM578.578 123.258H628.297V115.258H578.578V123.258ZM628.297 123.258C629.247 123.258 629.968 123.55 630.672 124.254L636.328 118.597C634.142 116.41 631.393 115.258 628.297 115.258V123.258ZM630.672 124.254C631.375 124.958 631.668 125.678 631.668 126.629H639.668C639.668 123.533 638.515 120.784 636.328 118.597L630.672 124.254ZM631.668 126.629C631.668 127.579 631.375 128.3 630.672 129.004L636.328 134.66C638.515 132.474 639.668 129.725 639.668 126.629H631.668ZM630.672 129.004C629.968 129.707 629.247 130 628.297 130V138C631.393 138 634.142 136.847 636.328 134.66L630.672 129.004ZM628.297 130H571.207V138H628.297V130ZM571.207 130C570.257 130 569.536 129.707 568.832 129.004L563.175 134.66C565.362 136.847 568.111 138 571.207 138V130ZM568.832 129.004C568.129 128.3 567.836 127.579 567.836 126.629H559.836C559.836 129.725 560.989 132.474 563.175 134.66L568.832 129.004ZM567.836 126.629V37.7422H559.836V126.629H567.836ZM665.875 58.4102L668.982 55.8911L661.875 47.1245V58.4102H665.875ZM665.08 34.418L661.502 36.2068L661.698 36.5971L661.972 36.9361L665.08 34.418ZM723.398 106.395L720.291 108.913L727.398 117.685V106.395H723.398ZM725.566 131.832L728.395 129.004L725.566 131.832ZM724.988 131.326L721.881 133.845L722.193 134.229L722.588 134.526L724.988 131.326ZM661.875 58.4102V126.629H669.875V58.4102H661.875ZM661.875 126.629C661.875 127.579 661.582 128.3 660.879 129.004L666.535 134.66C668.722 132.474 669.875 129.725 669.875 126.629H661.875ZM660.879 129.004C660.175 129.707 659.454 130 658.504 130V138C661.6 138 664.349 136.847 666.535 134.66L660.879 129.004ZM658.504 130C657.553 130 656.833 129.707 656.129 129.004L650.472 134.66C652.659 136.847 655.408 138 658.504 138V130ZM656.129 129.004C655.425 128.3 655.133 127.579 655.133 126.629H647.133C647.133 129.725 648.285 132.474 650.472 134.66L656.129 129.004ZM655.133 126.629V37.7422H647.133V126.629H655.133ZM655.133 37.7422C655.133 36.7917 655.425 36.0712 656.129 35.3675L650.472 29.7106C648.285 31.8975 647.133 34.6458 647.133 37.7422H655.133ZM656.129 35.3675C656.833 34.6638 657.553 34.3711 658.504 34.3711V26.3711C655.408 26.3711 652.659 27.5237 650.472 29.7106L656.129 35.3675ZM658.504 34.3711C659.454 34.3711 660.175 34.6638 660.879 35.3675L666.535 29.7106C664.349 27.5237 661.6 26.3711 658.504 26.3711V34.3711ZM660.879 35.3675C661.178 35.6672 661.373 35.9479 661.502 36.2068L668.658 32.6291C668.113 31.5391 667.392 30.5672 666.535 29.7106L660.879 35.3675ZM661.972 36.9361L720.291 108.913L726.506 103.876L668.188 31.8998L661.972 36.9361ZM727.398 106.395V37.7422H719.398V106.395H727.398ZM727.398 37.7422C727.398 36.7917 727.691 36.0712 728.395 35.3675L722.738 29.7106C720.551 31.8975 719.398 34.6458 719.398 37.7422H727.398ZM728.395 35.3675C729.099 34.6638 729.819 34.3711 730.77 34.3711V26.3711C727.673 26.3711 724.925 27.5237 722.738 29.7106L728.395 35.3675ZM730.77 34.3711C731.72 34.3711 732.441 34.6638 733.144 35.3675L738.801 29.7106C736.614 27.5237 733.866 26.3711 730.77 26.3711V34.3711ZM733.144 35.3675C733.848 36.0712 734.141 36.7917 734.141 37.7422H742.141C742.141 34.6458 740.988 31.8975 738.801 29.7106L733.144 35.3675ZM734.141 37.7422V126.629H742.141V37.7422H734.141ZM734.141 126.629C734.141 127.579 733.848 128.3 733.144 129.004L738.801 134.66C740.988 132.474 742.141 129.725 742.141 126.629H734.141ZM733.144 129.004C732.441 129.707 731.72 130 730.77 130V138C733.866 138 736.614 136.847 738.801 134.66L733.144 129.004ZM730.77 130C729.819 130 729.099 129.707 728.395 129.004L722.738 134.66C724.925 136.847 727.673 138 730.77 138V130ZM728.395 129.004C728.085 128.694 727.751 128.398 727.388 128.126L722.588 134.526C722.611 134.544 722.662 134.585 722.738 134.66L728.395 129.004ZM728.095 128.807L668.982 55.8911L662.768 60.9292L721.881 133.845L728.095 128.807ZM767.047 45.1133V41.1133H763.047V45.1133H767.047ZM767.047 119.258H763.047V123.258H767.047V119.258ZM814.381 108.418L811.552 105.59L814.381 108.418ZM814.381 56.0254L811.543 58.8444L811.552 58.8538L811.562 58.8632L814.381 56.0254ZM788.221 41.1133H767.047V49.1133H788.221V41.1133ZM763.047 45.1133V119.258H771.047V45.1133H763.047ZM767.047 123.258H788.221V115.258H767.047V123.258ZM788.221 123.258C799.496 123.258 809.233 119.223 817.209 111.246L811.552 105.59C805.075 112.066 797.373 115.258 788.221 115.258V123.258ZM817.209 111.246C825.228 103.228 829.293 93.4686 829.293 82.1855H821.293C821.293 91.3295 818.083 99.0588 811.552 105.59L817.209 111.246ZM829.293 82.1855C829.293 70.9018 825.227 61.1617 817.2 53.1876L811.562 58.8632C818.084 65.3422 821.293 73.0422 821.293 82.1855H829.293ZM817.219 53.2064C809.245 45.1791 799.504 41.1133 788.221 41.1133V49.1133C797.364 49.1133 805.064 52.3222 811.543 58.8444L817.219 53.2064ZM759.676 130C758.725 130 758.005 129.707 757.301 129.004L751.644 134.66C753.831 136.847 756.579 138 759.676 138V130ZM757.301 129.004C756.597 128.3 756.305 127.579 756.305 126.629H748.305C748.305 129.725 749.457 132.474 751.644 134.66L757.301 129.004ZM756.305 126.629V37.7422H748.305V126.629H756.305ZM756.305 37.7422C756.305 36.7917 756.597 36.0712 757.301 35.3675L751.644 29.7106C749.457 31.8975 748.305 34.6458 748.305 37.7422H756.305ZM757.301 35.3675C758.005 34.6638 758.725 34.3711 759.676 34.3711V26.3711C756.579 26.3711 753.831 27.5237 751.644 29.7106L757.301 35.3675ZM759.676 34.3711H788.221V26.3711H759.676V34.3711ZM788.221 34.3711C801.468 34.3711 812.664 39.0083 822.031 48.3753L827.688 42.7184C816.82 31.8511 803.59 26.3711 788.221 26.3711V34.3711ZM822.031 48.3753C831.398 57.7423 836.035 68.9378 836.035 82.1855H844.035C844.035 66.8161 838.555 53.5858 827.688 42.7184L822.031 48.3753ZM836.035 82.1855C836.035 95.4333 831.398 106.629 822.031 115.996L827.688 121.653C838.555 110.785 844.035 97.5549 844.035 82.1855H836.035ZM822.031 115.996C812.664 125.363 801.468 130 788.221 130V138C803.59 138 816.82 132.52 827.688 121.653L822.031 115.996ZM788.221 130H759.676V138H788.221V130Z" fill="#FF56B1" mask="url(#path-1-outside-1_630_2)"/>
</g>
<g filter="url(#filter1_d_630_2)">
<mask id="path-3-outside-2_630_2" maskUnits="userSpaceOnUse" x="251" y="175" width="844" height="112" fill="black">
<rect fill="white" x="251" y="175" width="844" height="112"/>
<path d="M291.143 194.113H269.969V268.258H291.143C301.356 268.258 310.076 264.645 317.303 257.418C324.577 250.143 328.215 241.399 328.215 231.186C328.215 220.972 324.577 212.252 317.303 205.025C310.076 197.751 301.356 194.113 291.143 194.113ZM262.598 283C260.574 283 258.84 282.277 257.395 280.832C255.949 279.387 255.227 277.652 255.227 275.629V186.742C255.227 184.719 255.949 182.984 257.395 181.539C258.84 180.094 260.574 179.371 262.598 179.371H291.143C305.451 179.371 317.664 184.43 327.781 194.547C337.898 204.664 342.957 216.877 342.957 231.186C342.957 245.494 337.898 257.707 327.781 267.824C317.664 277.941 305.451 283 291.143 283H262.598ZM358.566 186.742C358.566 184.719 359.289 182.984 360.734 181.539C362.18 180.094 363.914 179.371 365.938 179.371H423.027C425.051 179.371 426.785 180.094 428.23 181.539C429.676 182.984 430.398 184.719 430.398 186.742C430.398 188.766 429.676 190.5 428.23 191.945C426.785 193.391 425.051 194.113 423.027 194.113H373.309V210.445H394.844C396.867 210.445 398.602 211.168 400.047 212.613C401.492 214.059 402.215 215.793 402.215 217.816C402.215 219.84 401.492 221.574 400.047 223.02C398.602 224.465 396.867 225.188 394.844 225.188H373.309V268.258H423.027C425.051 268.258 426.785 268.98 428.23 270.426C429.676 271.871 430.398 273.605 430.398 275.629C430.398 277.652 429.676 279.387 428.23 280.832C426.785 282.277 425.051 283 423.027 283H365.938C363.914 283 362.18 282.277 360.734 280.832C359.289 279.387 358.566 277.652 358.566 275.629V186.742ZM446.658 190.355C445.936 189.247 445.574 187.995 445.574 186.598C445.574 184.622 446.273 182.936 447.67 181.539C449.067 180.094 450.777 179.371 452.801 179.371C454.776 179.371 456.486 180.07 457.932 181.467C458.558 182.141 459.04 182.84 459.377 183.562L496.16 259.225L532.871 183.562H532.943C533.281 182.84 533.762 182.141 534.389 181.467C535.786 180.07 537.496 179.371 539.52 179.371C541.495 179.371 543.181 180.094 544.578 181.539C546.023 182.936 546.746 184.622 546.746 186.598C546.746 188.139 546.337 189.488 545.518 190.645L502.664 278.953C502.327 279.628 501.869 280.254 501.291 280.832C499.846 282.277 498.135 283 496.16 283C494.137 283 492.426 282.277 491.029 280.832C490.355 280.158 489.849 279.435 489.512 278.664L446.658 190.355ZM561.488 186.742C561.488 184.719 562.211 182.984 563.656 181.539C565.102 180.094 566.836 179.371 568.859 179.371H625.949C627.973 179.371 629.707 180.094 631.152 181.539C632.598 182.984 633.32 184.719 633.32 186.742C633.32 188.766 632.598 190.5 631.152 191.945C629.707 193.391 627.973 194.113 625.949 194.113H576.23V210.445H597.766C599.789 210.445 601.523 211.168 602.969 212.613C604.414 214.059 605.137 215.793 605.137 217.816C605.137 219.84 604.414 221.574 602.969 223.02C601.523 224.465 599.789 225.188 597.766 225.188H576.23V268.258H625.949C627.973 268.258 629.707 268.98 631.152 270.426C632.598 271.871 633.32 273.605 633.32 275.629C633.32 277.652 632.598 279.387 631.152 280.832C629.707 282.277 627.973 283 625.949 283H568.859C566.836 283 565.102 282.277 563.656 280.832C562.211 279.387 561.488 277.652 561.488 275.629V186.742ZM648.785 275.629V186.742C648.785 184.719 649.508 182.984 650.953 181.539C652.398 180.094 654.133 179.371 656.156 179.371C658.18 179.371 659.914 180.094 661.359 181.539C662.805 182.984 663.527 184.719 663.527 186.742V268.258H713.246C715.27 268.258 717.004 268.98 718.449 270.426C719.895 271.871 720.617 273.605 720.617 275.629C720.617 277.652 719.895 279.387 718.449 280.832C717.004 282.277 715.27 283 713.246 283H656.156C654.133 283 652.398 282.277 650.953 280.832C649.508 279.387 648.785 277.652 648.785 275.629ZM773.01 179.371C787.318 179.371 799.531 184.43 809.648 194.547C819.766 204.664 824.824 216.877 824.824 231.186C824.824 245.494 819.766 257.707 809.648 267.824C799.531 277.941 787.318 283 773.01 283C758.701 283 746.488 277.941 736.371 267.824C726.254 257.707 721.195 245.494 721.195 231.186C721.195 216.877 726.254 204.664 736.371 194.547C746.488 184.43 758.701 179.371 773.01 179.371ZM773.01 194.113C762.748 194.113 754.004 197.751 746.777 205.025C739.551 212.252 735.938 220.972 735.938 231.186C735.938 241.399 739.551 250.143 746.777 257.418C754.004 264.645 762.748 268.258 773.01 268.258C783.223 268.258 791.943 264.645 799.17 257.418C806.445 250.143 810.082 241.399 810.082 231.186C810.082 220.972 806.445 212.252 799.17 205.025C791.943 197.751 783.223 194.113 773.01 194.113ZM877.434 193.824H855.176V225.115H877.434C881.77 225.115 885.455 223.598 888.49 220.562C891.574 217.479 893.115 213.77 893.115 209.434C893.115 205.146 891.574 201.484 888.49 198.449C885.455 195.366 881.77 193.824 877.434 193.824ZM855.176 239.641V275.629C855.176 277.652 854.453 279.387 853.008 280.832C851.562 282.277 849.828 283 847.805 283C845.781 283 844.047 282.277 842.602 280.832C841.156 279.387 840.434 277.652 840.434 275.629V186.742C840.434 184.719 841.156 182.984 842.602 181.539C844.047 180.094 845.781 179.371 847.805 179.371L877.434 179.299C885.768 179.299 892.874 182.238 898.752 188.115C904.678 193.993 907.641 201.099 907.641 209.434C907.641 217.768 904.678 224.898 898.752 230.824C892.874 236.702 885.768 239.641 877.434 239.641H855.176ZM923.25 186.742C923.25 184.719 923.973 182.984 925.418 181.539C926.863 180.094 928.598 179.371 930.621 179.371H987.711C989.734 179.371 991.469 180.094 992.914 181.539C994.359 182.984 995.082 184.719 995.082 186.742C995.082 188.766 994.359 190.5 992.914 191.945C991.469 193.391 989.734 194.113 987.711 194.113H937.992V210.445H959.527C961.551 210.445 963.285 211.168 964.73 212.613C966.176 214.059 966.898 215.793 966.898 217.816C966.898 219.84 966.176 221.574 964.73 223.02C963.285 224.465 961.551 225.188 959.527 225.188H937.992V268.258H987.711C989.734 268.258 991.469 268.98 992.914 270.426C994.359 271.871 995.082 273.605 995.082 275.629C995.082 277.652 994.359 279.387 992.914 280.832C991.469 282.277 989.734 283 987.711 283H930.621C928.598 283 926.863 282.277 925.418 280.832C923.973 279.387 923.25 277.652 923.25 275.629V186.742ZM1047.55 193.824H1025.29V225.115H1047.55C1051.88 225.115 1055.57 223.598 1058.6 220.562C1061.69 217.479 1063.23 213.77 1063.23 209.434C1063.23 205.146 1061.69 201.484 1058.6 198.449C1055.57 195.366 1051.88 193.824 1047.55 193.824ZM1053.04 239.207C1051.26 239.496 1049.43 239.641 1047.55 239.641H1025.29V275.629C1025.29 277.652 1024.57 279.387 1023.12 280.832C1021.68 282.277 1019.94 283 1017.92 283C1015.89 283 1014.16 282.277 1012.71 280.832C1011.27 279.387 1010.55 277.652 1010.55 275.629V186.742C1010.55 184.719 1011.27 182.984 1012.71 181.539C1014.16 180.094 1015.89 179.371 1017.92 179.371L1047.55 179.299C1055.88 179.299 1062.99 182.238 1068.87 188.115C1074.79 193.993 1077.75 201.099 1077.75 209.434C1077.75 217.768 1074.82 224.874 1068.94 230.752C1068.12 231.571 1067.32 232.294 1066.55 232.92L1089.03 271.943C1089.7 273.1 1090.04 274.28 1090.04 275.484C1090.04 276.159 1089.94 276.833 1089.75 277.508C1089.22 279.483 1088.06 280.977 1086.28 281.988C1085.12 282.663 1083.94 283 1082.74 283C1082.07 283 1081.39 282.904 1080.72 282.711C1078.74 282.181 1077.25 281.049 1076.24 279.314L1053.04 239.207Z"/>
</mask>
<path d="M269.969 194.113V190.113H265.969V194.113H269.969ZM269.969 268.258H265.969V272.258H269.969V268.258ZM317.303 257.418L314.474 254.59L317.303 257.418ZM317.303 205.025L314.465 207.844L314.474 207.854L314.484 207.863L317.303 205.025ZM291.143 190.113H269.969V198.113H291.143V190.113ZM265.969 194.113V268.258H273.969V194.113H265.969ZM269.969 272.258H291.143V264.258H269.969V272.258ZM291.143 272.258C302.418 272.258 312.155 268.223 320.131 260.246L314.474 254.59C307.997 261.066 300.295 264.258 291.143 264.258V272.258ZM320.131 260.246C328.15 252.228 332.215 242.469 332.215 231.186H324.215C324.215 240.33 321.005 248.059 314.474 254.59L320.131 260.246ZM332.215 231.186C332.215 219.902 328.149 210.162 320.122 202.188L314.484 207.863C321.006 214.342 324.215 222.042 324.215 231.186H332.215ZM320.141 202.206C312.166 194.179 302.426 190.113 291.143 190.113V198.113C300.286 198.113 307.986 201.322 314.465 207.844L320.141 202.206ZM262.598 279C261.647 279 260.927 278.707 260.223 278.004L254.566 283.66C256.753 285.847 259.501 287 262.598 287V279ZM260.223 278.004C259.519 277.3 259.227 276.579 259.227 275.629H251.227C251.227 278.725 252.379 281.474 254.566 283.66L260.223 278.004ZM259.227 275.629V186.742H251.227V275.629H259.227ZM259.227 186.742C259.227 185.792 259.519 185.071 260.223 184.367L254.566 178.711C252.379 180.898 251.227 183.646 251.227 186.742H259.227ZM260.223 184.367C260.927 183.664 261.647 183.371 262.598 183.371V175.371C259.501 175.371 256.753 176.524 254.566 178.711L260.223 184.367ZM262.598 183.371H291.143V175.371H262.598V183.371ZM291.143 183.371C304.39 183.371 315.586 188.008 324.953 197.375L330.61 191.718C319.742 180.851 306.512 175.371 291.143 175.371V183.371ZM324.953 197.375C334.32 206.742 338.957 217.938 338.957 231.186H346.957C346.957 215.816 341.477 202.586 330.61 191.718L324.953 197.375ZM338.957 231.186C338.957 244.433 334.32 255.629 324.953 264.996L330.61 270.653C341.477 259.785 346.957 246.555 346.957 231.186H338.957ZM324.953 264.996C315.586 274.363 304.39 279 291.143 279V287C306.512 287 319.742 281.52 330.61 270.653L324.953 264.996ZM291.143 279H262.598V287H291.143V279ZM373.309 194.113V190.113H369.309V194.113H373.309ZM373.309 210.445H369.309V214.445H373.309V210.445ZM373.309 225.188V221.188H369.309V225.188H373.309ZM373.309 268.258H369.309V272.258H373.309V268.258ZM362.566 186.742C362.566 185.792 362.859 185.071 363.563 184.367L357.906 178.711C355.719 180.898 354.566 183.646 354.566 186.742H362.566ZM363.563 184.367C364.267 183.664 364.987 183.371 365.938 183.371V175.371C362.841 175.371 360.093 176.524 357.906 178.711L363.563 184.367ZM365.938 183.371H423.027V175.371H365.938V183.371ZM423.027 183.371C423.978 183.371 424.698 183.664 425.402 184.367L431.059 178.711C428.872 176.524 426.124 175.371 423.027 175.371V183.371ZM425.402 184.367C426.106 185.071 426.398 185.792 426.398 186.742H434.398C434.398 183.646 433.246 180.898 431.059 178.711L425.402 184.367ZM426.398 186.742C426.398 187.693 426.106 188.413 425.402 189.117L431.059 194.774C433.246 192.587 434.398 189.839 434.398 186.742H426.398ZM425.402 189.117C424.698 189.821 423.978 190.113 423.027 190.113V198.113C426.124 198.113 428.872 196.961 431.059 194.774L425.402 189.117ZM423.027 190.113H373.309V198.113H423.027V190.113ZM369.309 194.113V210.445H377.309V194.113H369.309ZM373.309 214.445H394.844V206.445H373.309V214.445ZM394.844 214.445C395.794 214.445 396.515 214.738 397.218 215.442L402.875 209.785C400.688 207.598 397.94 206.445 394.844 206.445V214.445ZM397.218 215.442C397.922 216.145 398.215 216.866 398.215 217.816H406.215C406.215 214.72 405.062 211.972 402.875 209.785L397.218 215.442ZM398.215 217.816C398.215 218.767 397.922 219.487 397.218 220.191L402.875 225.848C405.062 223.661 406.215 220.913 406.215 217.816H398.215ZM397.218 220.191C396.515 220.895 395.794 221.188 394.844 221.188V229.188C397.94 229.188 400.688 228.035 402.875 225.848L397.218 220.191ZM394.844 221.188H373.309V229.188H394.844V221.188ZM369.309 225.188V268.258H377.309V225.188H369.309ZM373.309 272.258H423.027V264.258H373.309V272.258ZM423.027 272.258C423.978 272.258 424.698 272.55 425.402 273.254L431.059 267.597C428.872 265.41 426.124 264.258 423.027 264.258V272.258ZM425.402 273.254C426.106 273.958 426.398 274.678 426.398 275.629H434.398C434.398 272.533 433.246 269.784 431.059 267.597L425.402 273.254ZM426.398 275.629C426.398 276.579 426.106 277.3 425.402 278.004L431.059 283.66C433.246 281.474 434.398 278.725 434.398 275.629H426.398ZM425.402 278.004C424.698 278.707 423.978 279 423.027 279V287C426.124 287 428.872 285.847 431.059 283.66L425.402 278.004ZM423.027 279H365.938V287H423.027V279ZM365.938 279C364.987 279 364.267 278.707 363.563 278.004L357.906 283.66C360.093 285.847 362.841 287 365.938 287V279ZM363.563 278.004C362.859 277.3 362.566 276.579 362.566 275.629H354.566C354.566 278.725 355.719 281.474 357.906 283.66L363.563 278.004ZM362.566 275.629V186.742H354.566V275.629H362.566ZM446.658 190.355L450.257 188.609L450.147 188.382L450.009 188.17L446.658 190.355ZM447.67 181.539L450.498 184.367L450.522 184.344L450.546 184.319L447.67 181.539ZM457.932 181.467L460.863 178.745L460.789 178.666L460.712 178.591L457.932 181.467ZM459.377 183.562L455.752 185.254L455.766 185.283L455.78 185.311L459.377 183.562ZM496.16 259.225L492.563 260.973L496.164 268.381L499.759 260.971L496.16 259.225ZM532.871 183.562V179.562H530.366L529.272 181.816L532.871 183.562ZM532.943 183.562V187.562H535.491L536.568 185.254L532.943 183.562ZM534.389 181.467L531.56 178.638L531.508 178.691L531.457 178.745L534.389 181.467ZM544.578 181.539L541.702 184.319L541.749 184.368L541.798 184.415L544.578 181.539ZM545.518 190.645L542.253 188.332L542.063 188.602L541.919 188.898L545.518 190.645ZM502.664 278.953L506.242 280.742L506.252 280.721L506.263 280.699L502.664 278.953ZM491.029 280.832L493.905 278.052L493.882 278.028L493.858 278.004L491.029 280.832ZM489.512 278.664L493.176 277.061L493.145 276.989L493.11 276.918L489.512 278.664ZM450.009 188.17C449.734 187.75 449.574 187.265 449.574 186.598H441.574C441.574 188.725 442.137 190.745 443.308 192.541L450.009 188.17ZM449.574 186.598C449.574 185.684 449.851 185.015 450.498 184.367L444.841 178.711C442.694 180.858 441.574 183.561 441.574 186.598H449.574ZM450.546 184.319C451.184 183.659 451.854 183.371 452.801 183.371V175.371C449.701 175.371 446.95 176.528 444.794 178.759L450.546 184.319ZM452.801 183.371C453.718 183.371 454.437 183.652 455.152 184.343L460.712 178.591C458.535 176.487 455.834 175.371 452.801 175.371V183.371ZM455 184.189C455.386 184.604 455.616 184.962 455.752 185.254L463.002 181.871C462.464 180.718 461.73 179.679 460.863 178.745L455 184.189ZM455.78 185.311L492.563 260.973L499.758 257.476L462.974 181.814L455.78 185.311ZM499.759 260.971L536.47 185.309L529.272 181.816L492.561 257.479L499.759 260.971ZM532.871 187.562H532.943V179.562H532.871V187.562ZM536.568 185.254C536.704 184.962 536.934 184.604 537.32 184.189L531.457 178.745C530.591 179.679 529.857 180.718 529.319 181.871L536.568 185.254ZM537.217 184.295C537.844 183.668 538.528 183.371 539.52 183.371V175.371C536.464 175.371 533.728 176.471 531.56 178.638L537.217 184.295ZM539.52 183.371C540.389 183.371 541.044 183.638 541.702 184.319L547.454 178.759C545.318 176.55 542.601 175.371 539.52 175.371V183.371ZM541.798 184.415C542.479 185.074 542.746 185.728 542.746 186.598H550.746C550.746 183.517 549.568 180.799 547.358 178.663L541.798 184.415ZM542.746 186.598C542.746 187.388 542.551 187.912 542.253 188.332L548.782 192.957C550.122 191.064 550.746 188.891 550.746 186.598H542.746ZM541.919 188.898L499.065 277.207L506.263 280.699L549.116 192.391L541.919 188.898ZM499.086 277.164C498.957 277.423 498.762 277.704 498.463 278.004L504.119 283.66C504.976 282.804 505.697 281.832 506.242 280.742L499.086 277.164ZM498.463 278.004C497.738 278.728 497.034 279 496.16 279V287C499.237 287 501.953 285.827 504.119 283.66L498.463 278.004ZM496.16 279C495.213 279 494.543 278.712 493.905 278.052L488.153 283.612C490.31 285.843 493.06 287 496.16 287V279ZM493.858 278.004C493.489 277.635 493.289 277.318 493.176 277.061L485.847 280.267C486.409 281.552 487.221 282.68 488.201 283.66L493.858 278.004ZM493.11 276.918L450.257 188.609L443.06 192.102L485.913 280.41L493.11 276.918ZM576.23 194.113V190.113H572.23V194.113H576.23ZM576.23 210.445H572.23V214.445H576.23V210.445ZM576.23 225.188V221.188H572.23V225.188H576.23ZM576.23 268.258H572.23V272.258H576.23V268.258ZM565.488 186.742C565.488 185.792 565.781 185.071 566.485 184.367L560.828 178.711C558.641 180.898 557.488 183.646 557.488 186.742H565.488ZM566.485 184.367C567.188 183.664 567.909 183.371 568.859 183.371V175.371C565.763 175.371 563.015 176.524 560.828 178.711L566.485 184.367ZM568.859 183.371H625.949V175.371H568.859V183.371ZM625.949 183.371C626.9 183.371 627.62 183.664 628.324 184.367L633.981 178.711C631.794 176.524 629.046 175.371 625.949 175.371V183.371ZM628.324 184.367C629.028 185.071 629.32 185.792 629.32 186.742H637.32C637.32 183.646 636.168 180.898 633.981 178.711L628.324 184.367ZM629.32 186.742C629.32 187.693 629.028 188.413 628.324 189.117L633.981 194.774C636.168 192.587 637.32 189.839 637.32 186.742H629.32ZM628.324 189.117C627.62 189.821 626.9 190.113 625.949 190.113V198.113C629.046 198.113 631.794 196.961 633.981 194.774L628.324 189.117ZM625.949 190.113H576.23V198.113H625.949V190.113ZM572.23 194.113V210.445H580.23V194.113H572.23ZM576.23 214.445H597.766V206.445H576.23V214.445ZM597.766 214.445C598.716 214.445 599.437 214.738 600.14 215.442L605.797 209.785C603.61 207.598 600.862 206.445 597.766 206.445V214.445ZM600.14 215.442C600.844 216.145 601.137 216.866 601.137 217.816H609.137C609.137 214.72 607.984 211.972 605.797 209.785L600.14 215.442ZM601.137 217.816C601.137 218.767 600.844 219.487 600.14 220.191L605.797 225.848C607.984 223.661 609.137 220.913 609.137 217.816H601.137ZM600.14 220.191C599.437 220.895 598.716 221.188 597.766 221.188V229.188C600.862 229.188 603.61 228.035 605.797 225.848L600.14 220.191ZM597.766 221.188H576.23V229.188H597.766V221.188ZM572.23 225.188V268.258H580.23V225.188H572.23ZM576.23 272.258H625.949V264.258H576.23V272.258ZM625.949 272.258C626.9 272.258 627.62 272.55 628.324 273.254L633.981 267.597C631.794 265.41 629.046 264.258 625.949 264.258V272.258ZM628.324 273.254C629.028 273.958 629.32 274.678 629.32 275.629H637.32C637.32 272.533 636.168 269.784 633.981 267.597L628.324 273.254ZM629.32 275.629C629.32 276.579 629.028 277.3 628.324 278.004L633.981 283.66C636.168 281.474 637.32 278.725 637.32 275.629H629.32ZM628.324 278.004C627.62 278.707 626.9 279 625.949 279V287C629.046 287 631.794 285.847 633.981 283.66L628.324 278.004ZM625.949 279H568.859V287H625.949V279ZM568.859 279C567.909 279 567.188 278.707 566.485 278.004L560.828 283.66C563.015 285.847 565.763 287 568.859 287V279ZM566.485 278.004C565.781 277.3 565.488 276.579 565.488 275.629H557.488C557.488 278.725 558.641 281.474 560.828 283.66L566.485 278.004ZM565.488 275.629V186.742H557.488V275.629H565.488ZM663.527 268.258H659.527V272.258H663.527V268.258ZM652.785 275.629V186.742H644.785V275.629H652.785ZM652.785 186.742C652.785 185.792 653.078 185.071 653.782 184.367L648.125 178.711C645.938 180.898 644.785 183.646 644.785 186.742H652.785ZM653.782 184.367C654.485 183.664 655.206 183.371 656.156 183.371V175.371C653.06 175.371 650.312 176.524 648.125 178.711L653.782 184.367ZM656.156 183.371C657.107 183.371 657.827 183.664 658.531 184.367L664.188 178.711C662.001 176.524 659.253 175.371 656.156 175.371V183.371ZM658.531 184.367C659.235 185.071 659.527 185.792 659.527 186.742H667.527C667.527 183.646 666.375 180.898 664.188 178.711L658.531 184.367ZM659.527 186.742V268.258H667.527V186.742H659.527ZM663.527 272.258H713.246V264.258H663.527V272.258ZM713.246 272.258C714.197 272.258 714.917 272.55 715.621 273.254L721.278 267.597C719.091 265.41 716.342 264.258 713.246 264.258V272.258ZM715.621 273.254C716.325 273.958 716.617 274.678 716.617 275.629H724.617C724.617 272.533 723.465 269.784 721.278 267.597L715.621 273.254ZM716.617 275.629C716.617 276.579 716.325 277.3 715.621 278.004L721.278 283.66C723.465 281.474 724.617 278.725 724.617 275.629H716.617ZM715.621 278.004C714.917 278.707 714.197 279 713.246 279V287C716.342 287 719.091 285.847 721.278 283.66L715.621 278.004ZM713.246 279H656.156V287H713.246V279ZM656.156 279C655.206 279 654.485 278.707 653.782 278.004L648.125 283.66C650.312 285.847 653.06 287 656.156 287V279ZM653.782 278.004C653.078 277.3 652.785 276.579 652.785 275.629H644.785C644.785 278.725 645.938 281.474 648.125 283.66L653.782 278.004ZM746.777 205.025L749.606 207.854L749.615 207.844L746.777 205.025ZM746.777 257.418L743.94 260.237L743.949 260.246L746.777 257.418ZM799.17 257.418L796.341 254.59L799.17 257.418ZM799.17 205.025L796.332 207.844L796.341 207.854L796.351 207.863L799.17 205.025ZM773.01 183.371C786.258 183.371 797.453 188.008 806.82 197.375L812.477 191.718C801.609 180.851 788.379 175.371 773.01 175.371V183.371ZM806.82 197.375C816.187 206.742 820.824 217.938 820.824 231.186H828.824C828.824 215.816 823.344 202.586 812.477 191.718L806.82 197.375ZM820.824 231.186C820.824 244.433 816.187 255.629 806.82 264.996L812.477 270.653C823.344 259.785 828.824 246.555 828.824 231.186H820.824ZM806.82 264.996C797.453 274.363 786.258 279 773.01 279V287C788.379 287 801.609 281.52 812.477 270.653L806.82 264.996ZM773.01 279C759.762 279 748.567 274.363 739.2 264.996L733.543 270.653C744.41 281.52 757.64 287 773.01 287V279ZM739.2 264.996C729.833 255.629 725.195 244.433 725.195 231.186H717.195C717.195 246.555 722.675 259.785 733.543 270.653L739.2 264.996ZM725.195 231.186C725.195 217.938 729.833 206.742 739.2 197.375L733.543 191.718C722.675 202.586 717.195 215.816 717.195 231.186H725.195ZM739.2 197.375C748.567 188.008 759.762 183.371 773.01 183.371V175.371C757.64 175.371 744.41 180.851 733.543 191.718L739.2 197.375ZM773.01 190.113C761.683 190.113 751.918 194.175 743.94 202.206L749.615 207.844C756.09 201.326 763.813 198.113 773.01 198.113V190.113ZM743.949 202.197C735.973 210.173 731.938 219.91 731.938 231.186H739.938C739.938 222.034 743.129 214.331 749.606 207.854L743.949 202.197ZM731.938 231.186C731.938 242.46 735.972 252.216 743.94 260.237L749.615 254.599C743.13 248.07 739.938 240.338 739.938 231.186H731.938ZM743.949 260.246C751.929 268.227 761.692 272.258 773.01 272.258V264.258C763.804 264.258 756.079 261.063 749.606 254.59L743.949 260.246ZM773.01 272.258C784.285 272.258 794.022 268.223 801.998 260.246L796.341 254.59C789.865 261.066 782.162 264.258 773.01 264.258V272.258ZM801.998 260.246C810.017 252.228 814.082 242.469 814.082 231.186H806.082C806.082 240.33 802.872 248.059 796.341 254.59L801.998 260.246ZM814.082 231.186C814.082 219.902 810.016 210.162 801.989 202.188L796.351 207.863C802.873 214.342 806.082 222.042 806.082 231.186H814.082ZM802.008 202.206C794.034 194.179 784.294 190.113 773.01 190.113V198.113C782.153 198.113 789.853 201.322 796.332 207.844L802.008 202.206ZM855.176 193.824V189.824H851.176V193.824H855.176ZM855.176 225.115H851.176V229.115H855.176V225.115ZM888.49 198.449L885.64 201.255L885.662 201.278L885.684 201.3L888.49 198.449ZM855.176 239.641V235.641H851.176V239.641H855.176ZM847.805 179.371L847.805 183.371L847.814 183.371L847.805 179.371ZM877.434 179.299L877.434 175.299L877.424 175.299L877.434 179.299ZM898.752 188.115L895.924 190.944L895.929 190.949L895.935 190.955L898.752 188.115ZM877.434 189.824H855.176V197.824H877.434V189.824ZM851.176 193.824V225.115H859.176V193.824H851.176ZM855.176 229.115H877.434V221.115H855.176V229.115ZM877.434 229.115C882.818 229.115 887.525 227.185 891.319 223.391L885.662 217.734C883.385 220.011 880.721 221.115 877.434 221.115V229.115ZM891.319 223.391C895.147 219.562 897.115 214.837 897.115 209.434H889.115C889.115 212.702 888 215.396 885.662 217.734L891.319 223.391ZM897.115 209.434C897.115 204.063 895.136 199.378 891.296 195.599L885.684 201.3C888.011 203.591 889.115 206.229 889.115 209.434H897.115ZM891.341 195.643C887.552 191.794 882.839 189.824 877.434 189.824V197.824C880.7 197.824 883.358 198.938 885.64 201.255L891.341 195.643ZM851.176 239.641V275.629H859.176V239.641H851.176ZM851.176 275.629C851.176 276.579 850.883 277.3 850.179 278.004L855.836 283.66C858.023 281.474 859.176 278.725 859.176 275.629H851.176ZM850.179 278.004C849.476 278.707 848.755 279 847.805 279V287C850.901 287 853.649 285.847 855.836 283.66L850.179 278.004ZM847.805 279C846.854 279 846.134 278.707 845.43 278.004L839.773 283.66C841.96 285.847 844.708 287 847.805 287V279ZM845.43 278.004C844.726 277.3 844.434 276.579 844.434 275.629H836.434C836.434 278.725 837.586 281.474 839.773 283.66L845.43 278.004ZM844.434 275.629V186.742H836.434V275.629H844.434ZM844.434 186.742C844.434 185.792 844.726 185.071 845.43 184.367L839.773 178.711C837.586 180.898 836.434 183.646 836.434 186.742H844.434ZM845.43 184.367C846.134 183.664 846.854 183.371 847.805 183.371V175.371C844.708 175.371 841.96 176.524 839.773 178.711L845.43 184.367ZM847.814 183.371L877.443 183.299L877.424 175.299L847.795 175.371L847.814 183.371ZM877.434 183.299C884.711 183.299 890.798 185.818 895.924 190.944L901.58 185.287C894.95 178.657 886.826 175.299 877.434 175.299V183.299ZM895.935 190.955C901.105 196.083 903.641 202.167 903.641 209.434H911.641C911.641 200.031 908.251 191.903 901.569 185.275L895.935 190.955ZM903.641 209.434C903.641 216.701 901.104 222.816 895.924 227.996L901.58 233.653C908.252 226.981 911.641 218.836 911.641 209.434H903.641ZM895.924 227.996C890.798 233.121 884.711 235.641 877.434 235.641V243.641C886.826 243.641 894.95 240.283 901.58 233.653L895.924 227.996ZM877.434 235.641H855.176V243.641H877.434V235.641ZM937.992 194.113V190.113H933.992V194.113H937.992ZM937.992 210.445H933.992V214.445H937.992V210.445ZM937.992 225.188V221.188H933.992V225.188H937.992ZM937.992 268.258H933.992V272.258H937.992V268.258ZM927.25 186.742C927.25 185.792 927.543 185.071 928.246 184.367L922.59 178.711C920.403 180.898 919.25 183.646 919.25 186.742H927.25ZM928.246 184.367C928.95 183.664 929.671 183.371 930.621 183.371V175.371C927.525 175.371 924.776 176.524 922.59 178.711L928.246 184.367ZM930.621 183.371H987.711V175.371H930.621V183.371ZM987.711 183.371C988.661 183.371 989.382 183.664 990.086 184.367L995.742 178.711C993.556 176.524 990.807 175.371 987.711 175.371V183.371ZM990.086 184.367C990.789 185.071 991.082 185.792 991.082 186.742H999.082C999.082 183.646 997.929 180.898 995.742 178.711L990.086 184.367ZM991.082 186.742C991.082 187.693 990.789 188.413 990.086 189.117L995.742 194.774C997.929 192.587 999.082 189.839 999.082 186.742H991.082ZM990.086 189.117C989.382 189.821 988.661 190.113 987.711 190.113V198.113C990.807 198.113 993.556 196.961 995.742 194.774L990.086 189.117ZM987.711 190.113H937.992V198.113H987.711V190.113ZM933.992 194.113V210.445H941.992V194.113H933.992ZM937.992 214.445H959.527V206.445H937.992V214.445ZM959.527 214.445C960.478 214.445 961.198 214.738 961.902 215.442L967.559 209.785C965.372 207.598 962.624 206.445 959.527 206.445V214.445ZM961.902 215.442C962.606 216.145 962.898 216.866 962.898 217.816H970.898C970.898 214.72 969.746 211.972 967.559 209.785L961.902 215.442ZM962.898 217.816C962.898 218.767 962.606 219.487 961.902 220.191L967.559 225.848C969.746 223.661 970.898 220.913 970.898 217.816H962.898ZM961.902 220.191C961.198 220.895 960.478 221.188 959.527 221.188V229.188C962.624 229.188 965.372 228.035 967.559 225.848L961.902 220.191ZM959.527 221.188H937.992V229.188H959.527V221.188ZM933.992 225.188V268.258H941.992V225.188H933.992ZM937.992 272.258H987.711V264.258H937.992V272.258ZM987.711 272.258C988.661 272.258 989.382 272.55 990.086 273.254L995.742 267.597C993.556 265.41 990.807 264.258 987.711 264.258V272.258ZM990.086 273.254C990.789 273.958 991.082 274.678 991.082 275.629H999.082C999.082 272.533 997.929 269.784 995.742 267.597L990.086 273.254ZM991.082 275.629C991.082 276.579 990.789 277.3 990.086 278.004L995.742 283.66C997.929 281.474 999.082 278.725 999.082 275.629H991.082ZM990.086 278.004C989.382 278.707 988.661 279 987.711 279V287C990.807 287 993.556 285.847 995.742 283.66L990.086 278.004ZM987.711 279H930.621V287H987.711V279ZM930.621 279C929.671 279 928.95 278.707 928.246 278.004L922.59 283.66C924.776 285.847 927.525 287 930.621 287V279ZM928.246 278.004C927.543 277.3 927.25 276.579 927.25 275.629H919.25C919.25 278.725 920.403 281.474 922.59 283.66L928.246 278.004ZM927.25 275.629V186.742H919.25V275.629H927.25ZM1025.29 193.824V189.824H1021.29V193.824H1025.29ZM1025.29 225.115H1021.29V229.115H1025.29V225.115ZM1058.6 198.449L1055.75 201.255L1055.78 201.278L1055.8 201.3L1058.6 198.449ZM1053.04 239.207L1056.5 237.204L1055.12 234.817L1052.4 235.259L1053.04 239.207ZM1025.29 239.641V235.641H1021.29V239.641H1025.29ZM1017.92 179.371L1017.92 183.371L1017.93 183.371L1017.92 179.371ZM1047.55 179.299V175.299L1047.54 175.299L1047.55 179.299ZM1068.87 188.115L1066.04 190.944L1066.04 190.949L1066.05 190.955L1068.87 188.115ZM1066.55 232.92L1064.03 229.815L1061.39 231.964L1063.09 234.916L1066.55 232.92ZM1089.03 271.943L1085.56 273.94L1085.57 273.949L1085.57 273.959L1089.03 271.943ZM1089.75 277.508L1085.9 276.409L1085.9 276.44L1085.89 276.471L1089.75 277.508ZM1086.28 281.988L1084.31 278.51L1084.29 278.521L1084.27 278.533L1086.28 281.988ZM1080.72 282.711L1081.82 278.865L1081.78 278.856L1081.75 278.848L1080.72 282.711ZM1076.24 279.314L1072.77 281.317L1072.78 281.324L1072.78 281.33L1076.24 279.314ZM1047.55 189.824H1025.29V197.824H1047.55V189.824ZM1021.29 193.824V225.115H1029.29V193.824H1021.29ZM1025.29 229.115H1047.55V221.115H1025.29V229.115ZM1047.55 229.115C1052.93 229.115 1057.64 227.185 1061.43 223.391L1055.78 217.734C1053.5 220.011 1050.83 221.115 1047.55 221.115V229.115ZM1061.43 223.391C1065.26 219.562 1067.23 214.837 1067.23 209.434H1059.23C1059.23 212.702 1058.11 215.396 1055.78 217.734L1061.43 223.391ZM1067.23 209.434C1067.23 204.063 1065.25 199.378 1061.41 195.599L1055.8 201.3C1058.12 203.591 1059.23 206.229 1059.23 209.434H1067.23ZM1061.45 195.643C1057.67 191.794 1052.95 189.824 1047.55 189.824V197.824C1050.81 197.824 1053.47 198.938 1055.75 201.255L1061.45 195.643ZM1052.4 235.259C1050.84 235.512 1049.22 235.641 1047.55 235.641V243.641C1049.63 243.641 1051.68 243.48 1053.68 243.155L1052.4 235.259ZM1047.55 235.641H1025.29V243.641H1047.55V235.641ZM1021.29 239.641V275.629H1029.29V239.641H1021.29ZM1021.29 275.629C1021.29 276.579 1021 277.3 1020.29 278.004L1025.95 283.66C1028.14 281.474 1029.29 278.725 1029.29 275.629H1021.29ZM1020.29 278.004C1019.59 278.707 1018.87 279 1017.92 279V287C1021.01 287 1023.76 285.847 1025.95 283.66L1020.29 278.004ZM1017.92 279C1016.97 279 1016.25 278.707 1015.54 278.004L1009.89 283.66C1012.07 285.847 1014.82 287 1017.92 287V279ZM1015.54 278.004C1014.84 277.3 1014.55 276.579 1014.55 275.629H1006.55C1006.55 278.725 1007.7 281.474 1009.89 283.66L1015.54 278.004ZM1014.55 275.629V186.742H1006.55V275.629H1014.55ZM1014.55 186.742C1014.55 185.792 1014.84 185.071 1015.54 184.367L1009.89 178.711C1007.7 180.898 1006.55 183.646 1006.55 186.742H1014.55ZM1015.54 184.367C1016.25 183.664 1016.97 183.371 1017.92 183.371V175.371C1014.82 175.371 1012.07 176.524 1009.89 178.711L1015.54 184.367ZM1017.93 183.371L1047.56 183.299L1047.54 175.299L1017.91 175.371L1017.93 183.371ZM1047.55 183.299C1054.82 183.299 1060.91 185.818 1066.04 190.944L1071.69 185.287C1065.06 178.657 1056.94 175.299 1047.55 175.299V183.299ZM1066.05 190.955C1071.22 196.083 1073.75 202.167 1073.75 209.434H1081.75C1081.75 200.031 1078.36 191.903 1071.68 185.275L1066.05 190.955ZM1073.75 209.434C1073.75 216.711 1071.23 222.798 1066.11 227.924L1071.77 233.58C1078.4 226.95 1081.75 218.826 1081.75 209.434H1073.75ZM1066.11 227.924C1065.37 228.661 1064.68 229.289 1064.03 229.815L1069.08 236.024C1069.97 235.299 1070.87 234.481 1071.77 233.58L1066.11 227.924ZM1063.09 234.916L1085.56 273.94L1092.49 269.947L1070.02 230.924L1063.09 234.916ZM1085.57 273.959C1085.93 274.573 1086.04 275.065 1086.04 275.484H1094.04C1094.04 273.495 1093.47 271.626 1092.48 269.928L1085.57 273.959ZM1086.04 275.484C1086.04 275.773 1086 276.077 1085.9 276.409L1093.6 278.607C1093.89 277.589 1094.04 276.545 1094.04 275.484H1086.04ZM1085.89 276.471C1085.63 277.41 1085.16 278.025 1084.31 278.51L1088.26 285.467C1090.97 283.928 1092.81 281.556 1093.61 278.544L1085.89 276.471ZM1084.27 278.533C1083.65 278.892 1083.16 279 1082.74 279V287C1084.73 287 1086.6 286.434 1088.3 285.443L1084.27 278.533ZM1082.74 279C1082.45 279 1082.15 278.96 1081.82 278.865L1079.62 286.557C1080.64 286.848 1081.68 287 1082.74 287V279ZM1081.75 278.848C1080.78 278.585 1080.16 278.104 1079.69 277.299L1072.78 281.33C1074.34 283.994 1076.71 285.777 1079.68 286.574L1081.75 278.848ZM1079.7 277.312L1056.5 237.204L1049.58 241.21L1072.77 281.317L1079.7 277.312Z" fill="#56F5FF" mask="url(#path-3-outside-2_630_2)"/>
</g>
<defs>
<filter id="filter0_dd_630_2" x="0.226562" y="0.0820312" width="869.809" height="163.918" filterUnits="userSpaceOnUse" color-interpolation-filters="sRGB">
<feFlood flood-opacity="0" result="BackgroundImageFix"/>
<feColorMatrix in="SourceAlpha" type="matrix" values="0 0 0 0 0 0 0 0 0 0 0 0 0 0 0 0 0 0 127 0" result="hardAlpha"/>
<feOffset/>
<feGaussianBlur stdDeviation="15"/>
<feColorMatrix type="matrix" values="0 0 0 0 1 0 0 0 0 0.129412 0 0 0 0 0.6 0 0 0 0.75 0"/>
<feBlend mode="normal" in2="BackgroundImageFix" result="effect1_dropShadow_630_2"/>
<feColorMatrix in="SourceAlpha" type="matrix" values="0 0 0 0 0 0 0 0 0 0 0 0 0 0 0 0 0 0 127 0" result="hardAlpha"/>
<feOffset/>
<feGaussianBlur stdDeviation="5"/>
<feColorMatrix type="matrix" values="0 0 0 0 1 0 0 0 0 0.129167 0 0 0 0 0.598077 0 0 0 1 0"/>
<feBlend mode="normal" in2="effect1_dropShadow_630_2" result="effect2_dropShadow_630_2"/>
<feBlend mode="normal" in="SourceGraphic" in2="effect2_dropShadow_630_2" result="shape"/>
</filter>
<filter id="filter1_d_630_2" x="230.227" y="154.299" width="884.812" height="153.701" filterUnits="userSpaceOnUse" color-interpolation-filters="sRGB">
<feFlood flood-opacity="0" result="BackgroundImageFix"/>
<feColorMatrix in="SourceAlpha" type="matrix" values="0 0 0 0 0 0 0 0 0 0 0 0 0 0 0 0 0 0 127 0" result="hardAlpha"/>
<feOffset/>
<feGaussianBlur stdDeviation="12.5"/>
<feColorMatrix type="matrix" values="0 0 0 0 0.337255 0 0 0 0 0.960784 0 0 0 0 1 0 0 0 0.75 0"/>
<feBlend mode="normal" in2="BackgroundImageFix" result="effect1_dropShadow_630_2"/>
<feBlend mode="normal" in="SourceGraphic" in2="effect1_dropShadow_630_2" result="shape"/>
</filter>
</defs>
</svg>
